<svg width="129" height="40" viewBox="0 0 129 40" fill="none" xmlns="http://www.w3.org/2000/svg">
<path d="M68.047 10.05C68.047 11.4915 66.8858 12.6527 65.4444 12.6527C64.0029 12.6527 62.8418 11.4915 62.8418 10.05C62.8418 8.60861 63.9629 7.44745 65.4444 7.44745C66.9258 7.48749 68.047 8.64865 68.047 10.05ZM57.3162 15.2953C57.3162 15.5355 57.3162 15.9359 57.3162 15.9359C57.3162 15.9359 56.075 14.3343 53.4324 14.3343C49.068 14.3343 45.6646 17.6577 45.6646 22.2623C45.6646 26.8268 49.0279 30.1902 53.4324 30.1902C56.115 30.1902 57.3162 28.5485 57.3162 28.5485V29.2292C57.3162 29.5495 57.5565 29.7898 57.8768 29.7898H61.12V14.7347C61.12 14.7347 58.1571 14.7347 57.8768 14.7347C57.5565 14.7347 57.3162 15.015 57.3162 15.2953ZM57.3162 24.9449C56.7156 25.8258 55.5144 26.5866 54.073 26.5866C51.5104 26.5866 49.5485 24.985 49.5485 22.2623C49.5485 19.5395 51.5104 17.9379 54.073 17.9379C55.4744 17.9379 56.7557 18.7387 57.3162 19.5796V24.9449ZM63.5224 14.7347H67.3663V29.7898H63.5224V14.7347ZM120.94 14.3343C118.297 14.3343 117.056 15.9359 117.056 15.9359V7.48749H113.212V29.7898C113.212 29.7898 116.175 29.7898 116.455 29.7898C116.776 29.7898 117.016 29.5095 117.016 29.2292V28.5485C117.016 28.5485 118.257 30.1902 120.9 30.1902C125.264 30.1902 128.668 26.8268 128.668 22.2623C128.668 17.6977 125.264 14.3343 120.94 14.3343ZM120.299 26.5465C118.818 26.5465 117.657 25.7858 117.056 24.9049V19.5395C117.657 18.7387 118.938 17.8979 120.299 17.8979C122.862 17.8979 124.824 19.4995 124.824 22.2222C124.824 24.9449 122.862 26.5465 120.299 26.5465ZM111.21 20.8609V29.8298H107.366V21.3013C107.366 18.8188 106.565 17.8178 104.403 17.8178C103.242 17.8178 102.041 18.4184 101.28 19.2993V29.7898H97.4363V14.7347H100.479C100.8 14.7347 101.04 15.015 101.04 15.2953V15.9359C102.161 14.7748 103.643 14.3343 105.124 14.3343C106.806 14.3343 108.207 14.8148 109.328 15.7758C110.69 16.8969 111.21 18.3383 111.21 20.8609ZM88.107 14.3343C85.4644 14.3343 84.2231 15.9359 84.2231 15.9359V7.48749H80.3793V29.7898C80.3793 29.7898 83.3423 29.7898 83.6225 29.7898C83.9429 29.7898 84.1831 29.5095 84.1831 29.2292V28.5485C84.1831 28.5485 85.4243 30.1902 88.067 30.1902C92.4313 30.1902 95.8347 26.8268 95.8347 22.2623C95.8748 17.6977 92.4714 14.3343 88.107 14.3343ZM87.4664 26.5465C85.9849 26.5465 84.8237 25.7858 84.2231 24.9049V19.5395C84.8237 18.7387 86.105 17.8979 87.4664 17.8979C90.0289 17.8979 91.9909 19.4995 91.9909 22.2222C91.9909 24.9449 90.0289 26.5465 87.4664 26.5465ZM77.056 14.3343C78.2171 14.3343 78.8177 14.5345 78.8177 14.5345V18.0981C78.8177 18.0981 75.6145 17.017 73.6125 19.2993V29.8298H69.7687V14.7347C69.7687 14.7347 72.7317 14.7347 73.0119 14.7347C73.3322 14.7347 73.5725 15.015 73.5725 15.2953V15.9359C74.2932 15.0951 75.8548 14.3343 77.056 14.3343ZM37.1361 28.4284C36.9359 27.9479 36.7357 27.4274 36.5355 26.987C36.2151 26.2663 35.8948 25.5856 35.6145 24.9449L35.5745 24.9049C32.8117 18.8989 29.8488 12.8128 26.7257 6.80681L26.6055 6.56657C26.2852 5.96597 25.9649 5.32533 25.6446 4.68468C25.2442 3.96396 24.8438 3.2032 24.2031 2.48248C22.9218 0.880881 21.08 0 19.118 0C17.116 0 15.3142 0.880881 13.9929 2.4024C13.3923 3.12312 12.9519 3.88388 12.5515 4.6046C12.2312 5.24525 11.9108 5.88589 11.5905 6.48649L11.4704 6.72673C8.38732 12.7327 5.38431 18.8188 2.62155 24.8248L2.58151 24.9049C2.30123 25.5455 1.98091 26.2262 1.66059 26.9469C1.46039 27.3874 1.26019 27.8679 1.05999 28.3884C0.53947 29.8699 0.37931 31.2713 0.57951 32.7127C1.01995 35.7157 3.02195 38.2382 5.78471 39.3594C6.82576 39.7998 7.90684 40 9.02796 40C9.34828 40 9.74868 39.96 10.069 39.9199C11.3903 39.7598 12.7517 39.3193 14.073 38.5586C15.7146 37.6376 17.2762 36.3163 19.038 34.3944C20.7997 36.3163 22.4013 37.6376 24.0029 38.5586C25.3243 39.3193 26.6856 39.7598 28.0069 39.9199C28.3272 39.96 28.7277 40 29.048 40C30.1691 40 31.2902 39.7998 32.2912 39.3594C35.094 38.2382 37.056 35.6757 37.4964 32.7127C37.8167 31.3113 37.6566 29.9099 37.1361 28.4284ZM19.078 30.5105C16.9158 27.7878 15.5144 25.2252 15.034 23.0631C14.8338 22.1421 14.7937 21.3413 14.9138 20.6206C14.9939 19.98 15.2342 19.4194 15.5545 18.9389C16.3152 17.8579 17.5965 17.1772 19.078 17.1772C20.5595 17.1772 21.8808 17.8178 22.6015 18.9389C22.9218 19.4194 23.1621 19.98 23.2422 20.6206C23.3623 21.3413 23.3222 22.1822 23.122 23.0631C22.6416 25.1852 21.2402 27.7477 19.078 30.5105ZM35.054 32.3924C34.7737 34.4745 33.3723 36.2763 31.4103 37.0771C30.4494 37.4775 29.4083 37.5976 28.3673 37.4775C27.3663 37.3574 26.3653 37.037 25.3243 36.4364C23.8828 35.6356 22.4414 34.3944 20.7597 32.5526C23.4023 29.3093 25.0039 26.3463 25.6045 23.7037C25.8848 22.4625 25.9249 21.3413 25.8047 20.3003C25.6446 19.2993 25.2842 18.3784 24.7236 17.5776C23.4824 15.7758 21.4003 14.7347 19.078 14.7347C16.7557 14.7347 14.6736 15.8158 13.4324 17.5776C12.8718 18.3784 12.5114 19.2993 12.3513 20.3003C12.1911 21.3413 12.2312 22.5025 12.5515 23.7037C13.1521 26.3463 14.7937 29.3493 17.3963 32.5926C15.7547 34.4344 14.2732 35.6757 12.8318 36.4765C11.7907 37.0771 10.7897 37.3974 9.78872 37.5175C8.70764 37.6376 7.6666 37.4775 6.74568 37.1171C4.78371 36.3163 3.38231 34.5145 3.10203 32.4324C2.98191 31.4314 3.06199 30.4304 3.46239 29.3093C3.58251 28.9089 3.78271 28.5085 3.98291 28.028C4.26319 27.3874 4.58351 26.7067 4.90383 26.026L4.94387 25.9459C7.70664 19.98 10.6696 13.8939 13.7527 7.96797L13.8728 7.72773C14.1931 7.12713 14.5134 6.48649 14.8338 5.88589C15.1541 5.24524 15.5144 4.64464 15.9549 4.12412C16.7957 3.16316 17.9168 2.64264 19.1581 2.64264C20.3993 2.64264 21.5204 3.16316 22.3613 4.12412C22.8017 4.64464 23.1621 5.24524 23.4824 5.88589C23.8027 6.48649 24.123 7.12713 24.4434 7.72773L24.5635 7.96797C27.6065 13.9339 30.5695 20.02 33.3323 25.986V26.026C33.6526 26.6667 33.9329 27.3874 34.2532 28.028C34.4534 28.5085 34.6536 28.9089 34.7737 29.3093C35.094 30.3503 35.2141 31.3514 35.054 32.3924Z" fill="#FF5A5F"/>
</svg>
