<svg width="129" height="24" viewBox="0 0 129 24" fill="none" xmlns="http://www.w3.org/2000/svg">
<path d="M128.263 12.6238V8.02972C127.464 8.06566 125.067 8.43233 124.006 9.86305V8.34606H119.533V23.6526H124.006V16.4199C124.645 13.0121 127.54 12.6526 128.275 12.6238H128.263ZM88.193 12.8036C87.713 12.3206 87.1642 11.9317 86.5697 11.6532C86.0802 11.3848 85.5422 11.247 84.9976 11.2506C84.5942 11.2461 84.1949 11.3419 83.8281 11.531C83.6611 11.6073 83.5194 11.7406 83.4231 11.9121C83.3269 12.0836 83.2808 12.2847 83.2913 12.4872C83.2869 12.6926 83.3418 12.894 83.4478 13.0612C83.5539 13.2285 83.7052 13.3525 83.8793 13.4147C84.5036 13.6747 85.1445 13.8814 85.7965 14.033C86.3275 14.1624 86.8488 14.3379 87.3558 14.5578C87.8657 14.7766 88.3439 15.0794 88.7745 15.4565C89.1948 15.8284 89.5428 16.2933 89.797 16.8225C90.0648 17.414 90.1966 18.0714 90.1805 18.7349C90.2085 19.5452 90.046 20.3494 89.7094 21.0664C89.3728 21.7834 88.8739 22.3878 88.2633 22.8186C87.6776 23.2457 87.0281 23.5502 86.3461 23.7173C85.6595 23.9026 84.956 23.9967 84.2499 23.9977C83.1311 23.9978 82.0196 23.7938 80.9587 23.3937C79.9515 23.0413 79.0305 22.431 78.2682 21.6107L80.4794 18.4977C81.0184 19.0515 81.6307 19.5075 82.2944 19.8493C82.8752 20.178 83.5167 20.3479 84.1668 20.3454C84.5462 20.341 84.9198 20.2402 85.2597 20.0506C85.4324 19.9603 85.5764 19.8127 85.6723 19.6276C85.7683 19.4426 85.8116 19.2289 85.7965 19.0153C85.7988 18.7877 85.7387 18.5647 85.6243 18.3769C85.51 18.1891 85.3469 18.0455 85.1574 17.9656C84.4909 17.6537 83.7998 17.4129 83.0932 17.2467C82.6046 17.1177 82.1242 16.9519 81.6553 16.7506C81.1934 16.5488 80.7622 16.2675 80.3772 15.9166C80.0093 15.5635 79.7056 15.1339 79.4825 14.6513C79.233 14.0741 79.1103 13.438 79.1246 12.7964C79.1036 11.9666 79.2849 11.1461 79.6486 10.4238C79.991 9.77379 80.461 9.22046 81.0226 8.80619C81.5806 8.38563 82.1989 8.07673 82.8504 7.89312C83.5055 7.70016 84.1798 7.60112 84.857 7.59834C85.8815 7.59717 86.8997 7.77917 87.8734 8.13756C88.803 8.46432 89.6565 9.0193 90.3722 9.76239L88.193 12.8036ZM114.376 14.0114C114.37 13.3068 114.144 12.627 113.737 12.0918C113.474 11.7893 113.155 11.5557 112.802 11.4078C112.45 11.2599 112.073 11.2014 111.698 11.2362C111.291 11.2324 110.886 11.3103 110.503 11.4663C110.155 11.6094 109.832 11.8212 109.551 12.0918C109.288 12.3561 109.071 12.673 108.912 13.0264C108.77 13.3331 108.681 13.6674 108.65 14.0114H114.376ZM118.498 16.0892V16.7003C118.508 16.8942 118.508 17.0887 118.498 17.2826H108.63C108.659 17.6935 108.775 18.0905 108.969 18.4402C109.162 18.7911 109.411 19.0984 109.704 19.346C110.01 19.6038 110.351 19.8052 110.714 19.9428C111.086 20.0865 111.477 20.1594 111.871 20.1585C112.495 20.1789 113.114 20.0258 113.673 19.7127C114.143 19.4357 114.552 19.0425 114.868 18.5624L117.98 20.7696C117.332 21.8101 116.449 22.6387 115.424 23.1709C114.292 23.7441 113.061 24.0266 111.819 23.9977C110.834 24.0041 109.855 23.8217 108.924 23.4584C108.046 23.1218 107.235 22.5914 106.541 21.8983C105.85 21.1971 105.303 20.3363 104.937 19.3748C104.528 18.2935 104.328 17.1272 104.349 15.9526C104.335 14.7924 104.529 13.641 104.917 12.5663C105.276 11.6015 105.804 10.7283 106.47 9.99965C107.141 9.28739 107.929 8.73041 108.79 8.36043C109.718 7.96287 110.705 7.76532 111.698 7.77808C112.64 7.76813 113.575 7.96091 114.452 8.34606C115.268 8.70819 116.004 9.26781 116.606 9.98527C117.225 10.7352 117.703 11.618 118.012 12.5807C118.362 13.703 118.532 14.8858 118.517 16.0748L118.498 16.0892ZM64.6049 12.4944V7.87155H60.7705V4.44214C60.6746 2.46502 59.8439 0.991165 56.4504 0.991165V18.7996C56.4473 19.5132 56.529 20.2241 56.6932 20.9134C56.8381 21.5189 57.1 22.0811 57.4601 22.5598C57.8458 23.0366 58.3313 23.3974 58.8725 23.6094C59.6284 23.88 60.4183 24.0111 61.2115 23.9977C62.3669 24.0136 63.5158 23.7994 64.6049 23.365V19.267C63.878 19.4766 63.1314 19.5876 62.381 19.5977C62.1473 19.6302 61.9101 19.601 61.6883 19.5124C61.4664 19.4238 61.266 19.2782 61.1028 19.0872C60.8473 18.6204 60.7329 18.0731 60.7769 17.5271V12.4944H64.6049Z" fill="#008FB4"/>
<path d="M100.489 15.4854L105.537 8.29586H100.195L95.7213 14.6514V4.58606C95.6383 2.51548 94.8394 0.991295 91.3948 0.991295V23.6527H95.7213V16.3338L100.834 23.6527H106.234L100.489 15.4854ZM77.5079 23.6383V13.5011C77.5079 9.13703 74.4275 7.56972 71.6987 7.56972C69.5501 7.44909 67.4363 8.21617 65.7554 9.72657L68.0113 12.8756C68.9197 11.978 70.0548 11.4225 71.2578 11.2867C72.9002 11.2867 73.2389 12.3436 73.2389 13.6952V13.954H71.7626C67.9665 13.954 65.6851 15.8017 65.6851 19.0945C65.6851 22.6893 68.497 23.6239 71.9224 23.6239L77.5079 23.6383ZM73.2389 20.4534H71.8201C70.7145 20.4534 70.0371 19.9357 70.0371 18.8645C70.0371 17.7932 70.7146 17.1749 72.0694 17.1749H73.2389V20.4534ZM40.6911 3.77364C40.6911 4.51729 40.9537 5.23048 41.4211 5.75631C41.8885 6.28215 42.5224 6.57756 43.1834 6.57756C43.8445 6.57756 44.4784 6.28215 44.9458 5.75631C45.4132 5.23048 45.6758 4.51729 45.6758 3.77364C45.6758 3.03 45.4132 2.31681 44.9458 1.79097C44.4784 1.26514 43.8445 0.969727 43.1834 0.969727C42.5224 0.969727 41.8885 1.26514 41.4211 1.79097C40.9537 2.31681 40.6911 3.03 40.6911 3.77364ZM41.1129 7.90762H40.9275V23.6527H45.433V11.222C45.3051 9.30958 44.436 7.90762 41.1129 7.90762ZM55.46 12.624V8.02985C54.6675 8.06579 52.2646 8.43246 51.2038 9.86318V8.34618H46.7303V23.6527H51.2038V16.5422C51.2007 16.5016 51.2007 16.4607 51.2038 16.42C51.8428 13.0122 54.7314 12.6527 55.4727 12.624H55.46ZM126.965 21.3449H126.716V21.8769H126.965C126.998 21.8788 127.03 21.8734 127.06 21.8609C127.09 21.8484 127.118 21.8291 127.141 21.8042C127.164 21.7793 127.183 21.7494 127.196 21.7161C127.208 21.6829 127.215 21.647 127.215 21.6109C127.215 21.5747 127.208 21.5389 127.196 21.5056C127.183 21.4724 127.164 21.4424 127.141 21.4175C127.118 21.3926 127.09 21.3733 127.06 21.3608C127.03 21.3483 126.998 21.3429 126.965 21.3449ZM127.215 22.8187L126.908 22.0998H126.716V22.8187H126.435V21.0717H127.036C127.099 21.0697 127.163 21.0823 127.222 21.1086C127.281 21.1349 127.335 21.1744 127.381 21.2248C127.426 21.2752 127.462 21.3353 127.486 21.4017C127.51 21.468 127.522 21.5392 127.521 21.6109C127.522 21.7155 127.494 21.8177 127.44 21.9029C127.386 21.9882 127.309 22.052 127.221 22.0854L127.56 22.8043L127.215 22.8187ZM126.921 20.6619C126.687 20.6489 126.456 20.715 126.256 20.8514C126.056 20.9879 125.898 21.1886 125.8 21.4276C125.703 21.6666 125.671 21.9329 125.71 22.1922C125.748 22.4516 125.855 22.692 126.016 22.8825C126.177 23.0731 126.385 23.2049 126.613 23.2612C126.841 23.3174 127.079 23.2954 127.296 23.198C127.513 23.1006 127.7 22.9323 127.831 22.7148C127.962 22.4972 128.032 22.2404 128.033 21.9775C128.037 21.8089 128.011 21.6409 127.958 21.4834C127.904 21.3258 127.823 21.1817 127.72 21.0595C127.617 20.9372 127.493 20.8391 127.356 20.7709C127.218 20.7026 127.071 20.6656 126.921 20.6619ZM126.921 23.5952C126.636 23.6051 126.354 23.5195 126.113 23.3491C125.871 23.1788 125.68 22.9315 125.564 22.6386C125.447 22.3458 125.411 22.0206 125.459 21.7044C125.507 21.3882 125.638 21.0953 125.835 20.8629C126.031 20.6306 126.285 20.4692 126.563 20.3994C126.842 20.3296 127.132 20.3545 127.398 20.4709C127.664 20.5873 127.893 20.7899 128.056 21.0531C128.219 21.3162 128.309 21.628 128.314 21.9488C128.319 22.3709 128.175 22.7781 127.914 23.0812C127.653 23.3844 127.296 23.5589 126.921 23.5664V23.5952ZM28.3506 14.7736L30.3509 8.30305L32.3512 14.7736H28.3506ZM32.4535 0.991295H28.4337L22.2284 19.4396H19.7871C18.1228 19.5189 16.4736 19.0545 15.0388 18.1024C14.467 17.6896 14.0029 17.1132 13.6941 16.4323C13.3853 15.7514 13.2429 14.9904 13.2814 14.2272V12.0704H11.3003C9.4575 12.0135 7.69282 11.2209 6.32192 9.83442C5.25088 8.57064 4.57745 6.94683 4.40471 5.21155H18.2917C20.816 5.21155 21.7491 6.59913 22.3306 7.84292C22.6163 8.46676 22.831 9.12861 22.9697 9.81285L24.7271 4.58606C24.7271 4.58606 23.2573 0.991295 18.2917 0.991295H0.5V3.14815C0.5 7.21743 1.57364 10.4815 3.69535 12.8253C5.36084 14.5984 7.46782 15.7572 9.73455 16.1468C10.5334 20.7625 14.3039 23.6383 19.7871 23.6383H25.4876L26.7657 19.4828H33.9042L35.1823 23.6311H40.0584L32.4535 0.991295Z" fill="#008FB4"/>
</svg>
