<svg width="129" height="48" viewBox="0 0 129 48" fill="none" xmlns="http://www.w3.org/2000/svg">
<g clip-path="url(#clip0_25458_142)">
<path d="M40.6197 32.4265L42.1727 28.995C43.8732 30.1854 46.0911 30.8155 48.3096 30.8155C49.9364 30.8155 50.9714 30.2205 50.9714 29.3103C50.9343 26.7891 41.1743 28.7499 41.1001 22.4113C41.0629 19.1898 44.0948 16.7037 48.3839 16.7037C50.9343 16.7037 53.4858 17.2992 55.297 18.665L53.8458 22.1697C52.1793 21.1567 50.1209 20.4504 48.1617 20.4504C46.8308 20.4504 45.9432 21.0454 45.9432 21.8163C45.9803 24.3024 55.8151 22.9366 55.9259 28.995C55.9259 32.2866 52.9677 34.5978 48.7529 34.5978C45.6479 34.5978 42.801 33.8976 40.6191 32.4265H40.6197ZM102.46 27.7524C102.068 28.4109 101.497 28.9589 100.807 29.3403C100.117 29.7217 99.3325 29.9227 98.5332 29.9228C96.0422 29.9228 94.0231 28.0101 94.0231 25.6508C94.0231 23.2914 96.0422 21.3787 98.5332 21.3787C99.3325 21.3788 100.117 21.5798 100.807 21.9612C101.497 22.3426 102.068 22.8906 102.46 23.5491L106.777 21.2835C105.16 18.5513 102.075 16.7037 98.5332 16.7037C93.3163 16.7037 89.0871 20.7091 89.0871 25.6508C89.0871 30.5919 93.3163 34.5978 98.5332 34.5978C102.075 34.5978 105.16 32.7503 106.777 30.018L102.46 27.7524ZM58.7276 34.2474H64.1254V9.25586H58.7282L58.7276 34.2474ZM109.503 9.25586V34.2474H114.901V26.76L121.297 34.2474H128.197L120.063 25.3525L127.605 17.0526H121.001L114.901 23.9531V9.25586H109.503ZM80.7551 17.0536V19.0851C79.868 17.6841 77.6866 16.7037 75.3944 16.7037C70.6621 16.7037 66.9282 20.661 66.9282 25.6332C66.9282 30.6055 70.6621 34.5978 75.3944 34.5978C77.6866 34.5978 79.868 33.6174 80.7551 32.2164V34.2474H86.1528V17.0536H80.7551ZM80.7551 27.787C79.9788 29.0125 78.352 29.9223 76.5408 29.9223C74.0492 29.9223 72.0301 28.0101 72.0301 25.6508C72.0301 23.2914 74.0492 21.3787 76.5408 21.3787C78.352 21.3787 79.9788 22.3241 80.7551 23.5842V27.787Z" fill="white"/>
<path d="M12.1131 8.70312C10.3639 8.70312 8.94607 10.0464 8.94607 11.703C8.94565 12.0966 9.02724 12.4864 9.18617 12.8501C9.34511 13.2139 9.57827 13.5444 9.87236 13.823C10.1665 14.1016 10.5157 14.3227 10.9002 14.4736C11.2847 14.6246 11.6968 14.7025 12.1131 14.7029H15.2807V11.703C15.2815 10.9081 14.9481 10.1456 14.3541 9.58299C13.7601 9.02041 12.954 8.70392 12.1131 8.70312V8.70312ZM12.1131 16.7028H3.66708C1.91784 16.7028 0.5 18.0461 0.5 19.7032C0.5 21.3598 1.91784 22.7031 3.66708 22.7031H12.1137C13.8624 22.7031 15.2807 21.3598 15.2807 19.7032C15.2807 18.0461 13.8624 16.7028 12.1131 16.7028" fill="#36C5F0"/>
<path d="M32.1733 19.7032C32.1733 18.0461 30.755 16.7028 29.0057 16.7028C27.2565 16.7028 25.8386 18.0461 25.8386 19.7032V22.7031H29.0057C29.8466 22.7023 30.6527 22.3858 31.2467 21.8233C31.8407 21.2607 32.174 20.4981 32.1733 19.7032V19.7032ZM23.7273 19.7032V11.703C23.728 10.9081 23.3946 10.1456 22.8006 9.58299C22.2066 9.02041 21.4005 8.70392 20.5597 8.70312C18.8104 8.70312 17.3926 10.0464 17.3926 11.703V19.7027C17.3926 21.3603 18.8104 22.7036 20.5597 22.7036C21.4005 22.7028 22.2066 22.3863 22.8006 21.8238C23.3946 21.2612 23.728 20.4986 23.7273 19.7037" fill="#2EB67D"/>
<path d="M20.5597 38.7031C21.4005 38.7023 22.2066 38.3858 22.8006 37.8233C23.3946 37.2607 23.728 36.4981 23.7273 35.7032C23.728 34.9084 23.3946 34.1458 22.8006 33.5832C22.2066 33.0206 21.4005 32.7041 20.5597 32.7033H17.3926V35.7032C17.3926 37.3598 18.8104 38.7031 20.5597 38.7031ZM20.5597 30.7034H29.0063C30.755 30.7034 32.1733 29.3601 32.1733 27.703C32.174 26.9081 31.8407 26.1456 31.2467 25.583C30.6527 25.0204 29.8466 24.7039 29.0057 24.7031H20.5597C18.8104 24.7031 17.3926 26.0464 17.3926 27.703C17.3922 28.0966 17.4738 28.4864 17.6327 28.8501C17.7916 29.2139 18.0248 29.5444 18.3189 29.823C18.613 30.1016 18.9622 30.3227 19.3467 30.4736C19.7312 30.6246 20.1433 30.7025 20.5597 30.7029" fill="#ECB22E"/>
<path d="M0.500002 27.703C0.499584 28.0966 0.581171 28.4864 0.740105 28.8501C0.899039 29.2139 1.13221 29.5444 1.4263 29.823C1.72039 30.1016 2.06964 30.3227 2.45411 30.4736C2.83859 30.6246 3.25075 30.7025 3.66708 30.7029C4.50793 30.7021 5.31402 30.3856 5.90804 29.823C6.50207 29.2605 6.83539 28.4979 6.83468 27.703V24.7031H3.66708C1.91784 24.7031 0.500002 26.0464 0.500002 27.703V27.703ZM8.94607 27.703V35.7027C8.94607 37.3598 10.3639 38.7031 12.1131 38.7031C12.954 38.7023 13.7601 38.3858 14.3541 37.8233C14.9481 37.2607 15.2815 36.4981 15.2808 35.7032V27.703C15.2812 27.3094 15.1996 26.9196 15.0406 26.5558C14.8816 26.192 14.6484 25.8614 14.3543 25.5828C14.0601 25.3043 13.7108 25.0832 13.3263 24.9323C12.9417 24.7813 12.5295 24.7035 12.1131 24.7031C10.3639 24.7031 8.94607 26.0464 8.94607 27.703Z" fill="#E01E5A"/>
</g>
<defs>
<clipPath id="clip0_25458_142">
<rect width="128" height="48" fill="white" transform="translate(0.5)"/>
</clipPath>
</defs>
</svg>
